<svg id="Layer_1" data-name="Layer 1" xmlns="http://www.w3.org/2000/svg" viewBox="0 0 119.35 122.88"><defs><style>.cls-1{fill-rule:evenodd;}</style></defs><title>notebook</title><path class="cls-1" d="M30.52.05h85.59V103.1c-.15,2.52-3.41,2.58-6.94,2.42H29.32c-8,.73-5.15,11.38,0,10.82h83.1v-3.67h6.93v6.22a4,4,0,0,1-4,4H29.67c-12,.17-15.95-.47-15.95-9.25V100.92H4.56C2,100.92,0,98.59,0,95.73s2-5.19,4.56-5.19h9.16V82.26H4.56C2,82.26,0,79.94,0,77.07s2-5.18,4.56-5.18h9.16V63.6H4.56C2,63.6,0,61.28,0,58.42s2-5.19,4.56-5.19h9.16V45H4.56C2,45,0,42.63,0,39.76s2-5.19,4.56-5.19h9.16V26.29H4.56C2,26.29,0,24,0,21.11s2-5.19,4.56-5.19h9.16C13.7,2.65,13.53-.47,30.52.05ZM46.59,41.91a2.3,2.3,0,0,1,0-4.6H80.4a2.3,2.3,0,1,1,0,4.6Zm0-12.12a2.31,2.31,0,0,1,0-4.61H86.47a2.31,2.31,0,1,1,0,4.61ZM40.69,15H92.38a3.35,3.35,0,0,1,3.33,3.33V48.81a3.37,3.37,0,0,1-3.33,3.34H40.69a3.35,3.35,0,0,1-3.33-3.34V18.28A3.34,3.34,0,0,1,40.69,15Z"/></svg>